<mxfile host="app.diagrams.net" modified="2024-04-10T04:13:38.648Z" agent="Mozilla/5.0 (Macintosh; Intel Mac OS X 10_15_7) AppleWebKit/537.36 (KHTML, like Gecko) Chrome/122.0.0.0 Safari/537.36" etag="93ZbmgdUTIB0xnFKtAau" version="24.2.2" type="github">
  <diagram name="Página-1" id="JbriwkfzS9z4t20xiVHg">
    <mxGraphModel dx="522" dy="697" grid="0" gridSize="10" guides="1" tooltips="1" connect="1" arrows="1" fold="1" page="0" pageScale="1" pageWidth="827" pageHeight="1169" math="0" shadow="0">
      <root>
        <mxCell id="0" />
        <mxCell id="1" parent="0" />
        <mxCell id="UFwQga8of8685l1iYrwp-17" value="" style="rounded=1;whiteSpace=wrap;html=1;strokeColor=#4D9900;fillColor=none;strokeWidth=4;" parent="1" vertex="1">
          <mxGeometry x="428" y="-86" width="391" height="387" as="geometry" />
        </mxCell>
        <mxCell id="UFwQga8of8685l1iYrwp-14" value="" style="rounded=1;whiteSpace=wrap;html=1;strokeColor=#0066CC;fillColor=none;strokeWidth=4;movable=1;resizable=1;rotatable=1;deletable=1;editable=1;locked=0;connectable=1;" parent="1" vertex="1">
          <mxGeometry x="187.81" y="-9" width="360" height="311" as="geometry" />
        </mxCell>
        <mxCell id="UFwQga8of8685l1iYrwp-4" value="" style="sketch=0;outlineConnect=0;fontColor=#232F3E;gradientColor=none;fillColor=#000000;strokeColor=none;dashed=0;verticalLabelPosition=bottom;verticalAlign=top;align=center;html=1;fontSize=12;fontStyle=0;aspect=fixed;pointerEvents=1;shape=mxgraph.aws4.user;" parent="1" vertex="1">
          <mxGeometry x="333" y="185" width="78" height="78" as="geometry" />
        </mxCell>
        <mxCell id="UFwQga8of8685l1iYrwp-5" value="" style="sketch=0;outlineConnect=0;fontColor=#232F3E;gradientColor=none;fillColor=#000000;strokeColor=none;dashed=0;verticalLabelPosition=bottom;verticalAlign=top;align=center;html=1;fontSize=12;fontStyle=0;aspect=fixed;pointerEvents=1;shape=mxgraph.aws4.user;" parent="1" vertex="1">
          <mxGeometry x="211" y="185" width="78" height="78" as="geometry" />
        </mxCell>
        <mxCell id="UFwQga8of8685l1iYrwp-9" value="" style="shape=image;verticalLabelPosition=bottom;labelBackgroundColor=default;verticalAlign=top;aspect=fixed;imageAspect=0;image=https://res.cloudinary.com/hy4kyit2a/f_auto,fl_lossy,q_70/learn/modules/aws-cloud-security/control-access-with-aws-identity-and-access-management/images/08bf35ab2976a793674de211373cf4e8_52-e-4-abf-1-a-9-b-9-45-fa-8313-3-e-8-aba-11-f-6-cf.png;" parent="1" vertex="1">
          <mxGeometry x="328" y="59" width="79.61" height="79.61" as="geometry" />
        </mxCell>
        <mxCell id="UFwQga8of8685l1iYrwp-10" value="" style="shape=image;verticalLabelPosition=bottom;labelBackgroundColor=default;verticalAlign=top;aspect=fixed;imageAspect=0;image=https://res.cloudinary.com/hy4kyit2a/f_auto,fl_lossy,q_70/learn/modules/aws-cloud-security/control-access-with-aws-identity-and-access-management/images/08bf35ab2976a793674de211373cf4e8_52-e-4-abf-1-a-9-b-9-45-fa-8313-3-e-8-aba-11-f-6-cf.png;" parent="1" vertex="1">
          <mxGeometry x="591" y="17" width="79.61" height="79.61" as="geometry" />
        </mxCell>
        <mxCell id="UFwQga8of8685l1iYrwp-18" value="" style="group" parent="1" vertex="1" connectable="0">
          <mxGeometry x="1037" y="20" width="187" height="246" as="geometry" />
        </mxCell>
        <mxCell id="UFwQga8of8685l1iYrwp-13" value="" style="shape=image;verticalLabelPosition=bottom;labelBackgroundColor=default;verticalAlign=top;aspect=fixed;imageAspect=0;image=https://res.cloudinary.com/hy4kyit2a/f_auto,fl_lossy,q_70/learn/modules/aws-cloud-security/control-access-with-aws-identity-and-access-management/images/08bf35ab2976a793674de211373cf4e8_52-e-4-abf-1-a-9-b-9-45-fa-8313-3-e-8-aba-11-f-6-cf.png;" parent="UFwQga8of8685l1iYrwp-18" vertex="1">
          <mxGeometry width="79.61" height="79.61" as="geometry" />
        </mxCell>
        <mxCell id="UFwQga8of8685l1iYrwp-36" value="" style="endArrow=none;html=1;rounded=0;entryX=0.5;entryY=1;entryDx=0;entryDy=0;" parent="UFwQga8of8685l1iYrwp-18" target="UFwQga8of8685l1iYrwp-13" edge="1">
          <mxGeometry width="50" height="50" relative="1" as="geometry">
            <mxPoint x="39" y="168" as="sourcePoint" />
            <mxPoint x="89" y="118" as="targetPoint" />
          </mxGeometry>
        </mxCell>
        <mxCell id="UFwQga8of8685l1iYrwp-42" value="&lt;font style=&quot;font-size: 18px;&quot; face=&quot;Fredoka&quot; data-font-src=&quot;https://fonts.googleapis.com/css?family=Fredoka&quot;&gt;Em linha&lt;/font&gt;" style="text;html=1;align=center;verticalAlign=middle;resizable=0;points=[];autosize=1;strokeColor=none;fillColor=none;" parent="UFwQga8of8685l1iYrwp-18" vertex="1">
          <mxGeometry x="76" y="31" width="87" height="34" as="geometry" />
        </mxCell>
        <mxCell id="UFwQga8of8685l1iYrwp-43" value="" style="sketch=0;outlineConnect=0;fontColor=#232F3E;gradientColor=none;fillColor=#000000;strokeColor=none;dashed=0;verticalLabelPosition=bottom;verticalAlign=top;align=center;html=1;fontSize=12;fontStyle=0;aspect=fixed;pointerEvents=1;shape=mxgraph.aws4.user;" parent="UFwQga8of8685l1iYrwp-18" vertex="1">
          <mxGeometry x="6.866666666666674" y="169.5" width="65.86666666666666" height="65.86666666666666" as="geometry" />
        </mxCell>
        <mxCell id="UFwQga8of8685l1iYrwp-20" value="" style="group" parent="1" vertex="1" connectable="0">
          <mxGeometry x="700" y="-9" width="304" height="311" as="geometry" />
        </mxCell>
        <mxCell id="UFwQga8of8685l1iYrwp-15" value="" style="rounded=1;whiteSpace=wrap;html=1;strokeColor=#FF8000;fillColor=none;strokeWidth=4;" parent="UFwQga8of8685l1iYrwp-20" vertex="1">
          <mxGeometry width="304" height="311" as="geometry" />
        </mxCell>
        <mxCell id="UFwQga8of8685l1iYrwp-7" value="" style="sketch=0;outlineConnect=0;fontColor=#232F3E;gradientColor=none;fillColor=#000000;strokeColor=none;dashed=0;verticalLabelPosition=bottom;verticalAlign=top;align=center;html=1;fontSize=12;fontStyle=0;aspect=fixed;pointerEvents=1;shape=mxgraph.aws4.user;" parent="UFwQga8of8685l1iYrwp-20" vertex="1">
          <mxGeometry x="168.99666666666667" y="198" width="65.86666666666666" height="65.86666666666666" as="geometry" />
        </mxCell>
        <mxCell id="UFwQga8of8685l1iYrwp-8" value="" style="sketch=0;outlineConnect=0;fontColor=#232F3E;gradientColor=none;fillColor=#000000;strokeColor=none;dashed=0;verticalLabelPosition=bottom;verticalAlign=top;align=center;html=1;fontSize=12;fontStyle=0;aspect=fixed;pointerEvents=1;shape=mxgraph.aws4.user;" parent="UFwQga8of8685l1iYrwp-20" vertex="1">
          <mxGeometry x="20.266666666666666" y="194" width="65.86666666666666" height="65.86666666666666" as="geometry" />
        </mxCell>
        <mxCell id="UFwQga8of8685l1iYrwp-26" value="&lt;font style=&quot;font-size: 18px;&quot; face=&quot;Fredoka&quot; data-font-src=&quot;https://fonts.googleapis.com/css?family=Fredoka&quot;&gt;David&lt;/font&gt;" style="text;html=1;align=center;verticalAlign=middle;resizable=0;points=[];autosize=1;strokeColor=none;fillColor=none;" parent="UFwQga8of8685l1iYrwp-20" vertex="1">
          <mxGeometry x="25.333333333333332" y="272" width="65" height="34" as="geometry" />
        </mxCell>
        <mxCell id="UFwQga8of8685l1iYrwp-27" value="&lt;font style=&quot;font-size: 18px;&quot; face=&quot;Fredoka&quot; data-font-src=&quot;https://fonts.googleapis.com/css?family=Fredoka&quot;&gt;Edward&lt;/font&gt;" style="text;html=1;align=center;verticalAlign=middle;resizable=0;points=[];autosize=1;strokeColor=none;fillColor=none;" parent="UFwQga8of8685l1iYrwp-20" vertex="1">
          <mxGeometry x="161.93444444444447" y="272" width="80" height="34" as="geometry" />
        </mxCell>
        <mxCell id="UFwQga8of8685l1iYrwp-35" value="&lt;font style=&quot;font-size: 18px;&quot; face=&quot;Fredoka&quot; data-font-src=&quot;https://fonts.googleapis.com/css?family=Fredoka&quot;&gt;Operações&lt;/font&gt;" style="text;html=1;align=center;verticalAlign=middle;resizable=0;points=[];autosize=1;strokeColor=none;fillColor=none;" parent="UFwQga8of8685l1iYrwp-20" vertex="1">
          <mxGeometry x="146.93333333333334" y="3" width="105" height="34" as="geometry" />
        </mxCell>
        <mxCell id="UFwQga8of8685l1iYrwp-21" value="&lt;font style=&quot;font-size: 18px;&quot; face=&quot;Fredoka&quot; data-font-src=&quot;https://fonts.googleapis.com/css?family=Fredoka&quot;&gt;Desenvolvedores&lt;/font&gt;" style="text;html=1;align=center;verticalAlign=middle;resizable=0;points=[];autosize=1;strokeColor=none;fillColor=none;" parent="1" vertex="1">
          <mxGeometry x="236" y="1" width="155" height="34" as="geometry" />
        </mxCell>
        <mxCell id="UFwQga8of8685l1iYrwp-22" value="" style="shape=image;verticalLabelPosition=bottom;labelBackgroundColor=default;verticalAlign=top;aspect=fixed;imageAspect=0;image=https://res.cloudinary.com/hy4kyit2a/f_auto,fl_lossy,q_70/learn/modules/aws-cloud-security/control-access-with-aws-identity-and-access-management/images/08bf35ab2976a793674de211373cf4e8_52-e-4-abf-1-a-9-b-9-45-fa-8313-3-e-8-aba-11-f-6-cf.png;" parent="1" vertex="1">
          <mxGeometry x="867" y="59" width="79.61" height="79.61" as="geometry" />
        </mxCell>
        <mxCell id="UFwQga8of8685l1iYrwp-23" value="&lt;font style=&quot;font-size: 18px;&quot; face=&quot;Fredoka&quot; data-font-src=&quot;https://fonts.googleapis.com/css?family=Fredoka&quot;&gt;Alice&lt;/font&gt;" style="text;html=1;align=center;verticalAlign=middle;resizable=0;points=[];autosize=1;strokeColor=none;fillColor=none;" parent="1" vertex="1">
          <mxGeometry x="217" y="263" width="58" height="34" as="geometry" />
        </mxCell>
        <mxCell id="UFwQga8of8685l1iYrwp-24" value="&lt;font style=&quot;font-size: 18px;&quot; face=&quot;Fredoka&quot; data-font-src=&quot;https://fonts.googleapis.com/css?family=Fredoka&quot;&gt;Bob&lt;/font&gt;" style="text;html=1;align=center;verticalAlign=middle;resizable=0;points=[];autosize=1;strokeColor=none;fillColor=none;" parent="1" vertex="1">
          <mxGeometry x="347" y="263" width="50" height="34" as="geometry" />
        </mxCell>
        <mxCell id="UFwQga8of8685l1iYrwp-25" value="&lt;font style=&quot;font-size: 18px;&quot; face=&quot;Fredoka&quot; data-font-src=&quot;https://fonts.googleapis.com/css?family=Fredoka&quot;&gt;Charles&lt;/font&gt;" style="text;html=1;align=center;verticalAlign=middle;resizable=0;points=[];autosize=1;strokeColor=none;fillColor=none;" parent="1" vertex="1">
          <mxGeometry x="454" y="263" width="80" height="34" as="geometry" />
        </mxCell>
        <mxCell id="UFwQga8of8685l1iYrwp-28" value="&lt;font style=&quot;font-size: 18px;&quot; face=&quot;Fredoka&quot; data-font-src=&quot;https://fonts.googleapis.com/css?family=Fredoka&quot;&gt;Fred&lt;/font&gt;" style="text;html=1;align=center;verticalAlign=middle;resizable=0;points=[];autosize=1;strokeColor=none;fillColor=none;" parent="1" vertex="1">
          <mxGeometry x="1049" y="254.5" width="55" height="34" as="geometry" />
        </mxCell>
        <mxCell id="UFwQga8of8685l1iYrwp-31" value="" style="endArrow=none;html=1;rounded=0;entryX=0.5;entryY=1;entryDx=0;entryDy=0;" parent="1" target="UFwQga8of8685l1iYrwp-9" edge="1">
          <mxGeometry width="50" height="50" relative="1" as="geometry">
            <mxPoint x="260" y="188.61" as="sourcePoint" />
            <mxPoint x="310" y="138.61" as="targetPoint" />
          </mxGeometry>
        </mxCell>
        <mxCell id="UFwQga8of8685l1iYrwp-32" value="" style="endArrow=none;html=1;rounded=0;entryX=0.5;entryY=1;entryDx=0;entryDy=0;" parent="1" source="UFwQga8of8685l1iYrwp-4" target="UFwQga8of8685l1iYrwp-9" edge="1">
          <mxGeometry width="50" height="50" relative="1" as="geometry">
            <mxPoint x="361" y="192" as="sourcePoint" />
            <mxPoint x="366" y="140" as="targetPoint" />
          </mxGeometry>
        </mxCell>
        <mxCell id="UFwQga8of8685l1iYrwp-33" value="" style="endArrow=none;html=1;rounded=0;exitX=0.5;exitY=1;exitDx=0;exitDy=0;" parent="1" source="UFwQga8of8685l1iYrwp-9" edge="1">
          <mxGeometry width="50" height="50" relative="1" as="geometry">
            <mxPoint x="405.80499999999995" y="124.6099999999999" as="sourcePoint" />
            <mxPoint x="496.5454545454545" y="186.00963876252126" as="targetPoint" />
          </mxGeometry>
        </mxCell>
        <mxCell id="UFwQga8of8685l1iYrwp-3" value="" style="sketch=0;outlineConnect=0;fontColor=#232F3E;gradientColor=none;fillColor=#000000;strokeColor=none;dashed=0;verticalLabelPosition=bottom;verticalAlign=top;align=center;html=1;fontSize=12;fontStyle=0;aspect=fixed;pointerEvents=1;shape=mxgraph.aws4.user;" parent="1" vertex="1">
          <mxGeometry x="455" y="185" width="78" height="78" as="geometry" />
        </mxCell>
        <mxCell id="UFwQga8of8685l1iYrwp-34" value="&lt;font style=&quot;font-size: 18px;&quot; face=&quot;Fredoka&quot; data-font-src=&quot;https://fonts.googleapis.com/css?family=Fredoka&quot;&gt;Time de auditoria&lt;/font&gt;" style="text;html=1;align=center;verticalAlign=middle;resizable=0;points=[];autosize=1;strokeColor=none;fillColor=none;" parent="1" vertex="1">
          <mxGeometry x="543.5" y="-80" width="160" height="34" as="geometry" />
        </mxCell>
        <mxCell id="UFwQga8of8685l1iYrwp-39" value="" style="endArrow=none;html=1;rounded=0;entryX=0.491;entryY=0.981;entryDx=0;entryDy=0;entryPerimeter=0;" parent="1" target="UFwQga8of8685l1iYrwp-22" edge="1">
          <mxGeometry width="50" height="50" relative="1" as="geometry">
            <mxPoint x="760.4545454545453" y="185.94743829238462" as="sourcePoint" />
            <mxPoint x="868.8050000000001" y="121.6099999999999" as="targetPoint" />
          </mxGeometry>
        </mxCell>
        <mxCell id="UFwQga8of8685l1iYrwp-40" value="" style="endArrow=none;html=1;rounded=0;entryX=0.5;entryY=1;entryDx=0;entryDy=0;" parent="1" target="UFwQga8of8685l1iYrwp-10" edge="1">
          <mxGeometry width="50" height="50" relative="1" as="geometry">
            <mxPoint x="493.5" y="185" as="sourcePoint" />
            <mxPoint x="543.5" y="135" as="targetPoint" />
          </mxGeometry>
        </mxCell>
        <mxCell id="UFwQga8of8685l1iYrwp-41" value="" style="endArrow=none;html=1;rounded=0;exitX=0.5;exitY=1;exitDx=0;exitDy=0;" parent="1" source="UFwQga8of8685l1iYrwp-10" edge="1">
          <mxGeometry width="50" height="50" relative="1" as="geometry">
            <mxPoint x="664" y="93" as="sourcePoint" />
            <mxPoint x="761.5454545454543" y="186.144907723855" as="targetPoint" />
          </mxGeometry>
        </mxCell>
        <mxCell id="UFwQga8of8685l1iYrwp-38" value="" style="endArrow=none;html=1;rounded=0;entryX=0.497;entryY=0.975;entryDx=0;entryDy=0;entryPerimeter=0;" parent="1" source="UFwQga8of8685l1iYrwp-7" target="UFwQga8of8685l1iYrwp-22" edge="1">
          <mxGeometry width="50" height="50" relative="1" as="geometry">
            <mxPoint x="873.9555555555555" y="187" as="sourcePoint" />
            <mxPoint x="916.1777777777778" y="137" as="targetPoint" />
          </mxGeometry>
        </mxCell>
        <mxCell id="UFwQga8of8685l1iYrwp-45" value="" style="sketch=0;outlineConnect=0;fontColor=#232F3E;gradientColor=none;fillColor=#FF0000;strokeColor=none;dashed=0;verticalLabelPosition=bottom;verticalAlign=top;align=center;html=1;fontSize=12;fontStyle=0;aspect=fixed;pointerEvents=1;shape=mxgraph.aws4.policy;" parent="1" vertex="1">
          <mxGeometry x="926" y="-129" width="78" height="67" as="geometry" />
        </mxCell>
        <mxCell id="UFwQga8of8685l1iYrwp-46" value="" style="sketch=0;points=[[0,0,0],[0.25,0,0],[0.5,0,0],[0.75,0,0],[1,0,0],[0,1,0],[0.25,1,0],[0.5,1,0],[0.75,1,0],[1,1,0],[0,0.25,0],[0,0.5,0],[0,0.75,0],[1,0.25,0],[1,0.5,0],[1,0.75,0]];points=[[0,0,0],[0.25,0,0],[0.5,0,0],[0.75,0,0],[1,0,0],[0,1,0],[0.25,1,0],[0.5,1,0],[0.75,1,0],[1,1,0],[0,0.25,0],[0,0.5,0],[0,0.75,0],[1,0.25,0],[1,0.5,0],[1,0.75,0]];outlineConnect=0;fontColor=#232F3E;fillColor=#E7157B;strokeColor=#ffffff;dashed=0;verticalLabelPosition=bottom;verticalAlign=top;align=center;html=1;fontSize=12;fontStyle=0;aspect=fixed;shape=mxgraph.aws4.resourceIcon;resIcon=mxgraph.aws4.organizations;" parent="1" vertex="1">
          <mxGeometry x="797" y="32" width="78" height="78" as="geometry" />
        </mxCell>
        <mxCell id="UFwQga8of8685l1iYrwp-64" value="&lt;font data-font-src=&quot;https://fonts.googleapis.com/css?family=Fredoka&quot;&gt;Região sa-east-1 (São Paulo)&lt;/font&gt;" style="points=[[0,0],[0.25,0],[0.5,0],[0.75,0],[1,0],[1,0.25],[1,0.5],[1,0.75],[1,1],[0.75,1],[0.5,1],[0.25,1],[0,1],[0,0.75],[0,0.5],[0,0.25]];outlineConnect=0;gradientColor=none;html=1;whiteSpace=wrap;fontSize=12;fontStyle=0;container=1;pointerEvents=0;collapsible=0;recursiveResize=0;shape=mxgraph.aws4.group;grIcon=mxgraph.aws4.group_region;strokeColor=#00A4A6;fillColor=none;verticalAlign=top;align=left;spacingLeft=30;fontColor=#147EBA;dashed=1;fontFamily=Helvetica;" parent="1" vertex="1">
          <mxGeometry x="370" y="601" width="687" height="516" as="geometry" />
        </mxCell>
        <mxCell id="UFwQga8of8685l1iYrwp-65" value="&lt;font color=&quot;#000000&quot; data-font-src=&quot;https://fonts.googleapis.com/css?family=Fredoka&quot;&gt;VPC 172.31.0.0/16 (65.536 endereços)&lt;/font&gt;" style="points=[[0,0],[0.25,0],[0.5,0],[0.75,0],[1,0],[1,0.25],[1,0.5],[1,0.75],[1,1],[0.75,1],[0.5,1],[0.25,1],[0,1],[0,0.75],[0,0.5],[0,0.25]];outlineConnect=0;gradientColor=none;html=1;whiteSpace=wrap;fontSize=12;fontStyle=0;container=1;pointerEvents=0;collapsible=0;recursiveResize=0;shape=mxgraph.aws4.group;grIcon=mxgraph.aws4.group_vpc2;strokeColor=#8C4FFF;fillColor=none;verticalAlign=top;align=left;spacingLeft=30;fontColor=#AAB7B8;dashed=0;fontFamily=Helvetica;" parent="UFwQga8of8685l1iYrwp-64" vertex="1">
          <mxGeometry x="43" y="38" width="606" height="442" as="geometry" />
        </mxCell>
        <mxCell id="UFwQga8of8685l1iYrwp-68" value="&lt;font color=&quot;#4d4d4d&quot;&gt;Zona de disponibilidade (AZ - 1)&lt;/font&gt;" style="fillColor=none;strokeColor=#545B64;dashed=1;verticalAlign=top;fontStyle=0;fontColor=#147EBA;whiteSpace=wrap;html=1;fontFamily=Helvetica;" parent="UFwQga8of8685l1iYrwp-65" vertex="1">
          <mxGeometry x="-24" y="41" width="650" height="108" as="geometry" />
        </mxCell>
        <mxCell id="UFwQga8of8685l1iYrwp-73" value="&lt;font color=&quot;#4d4d4d&quot;&gt;Zona de disponibilidade (AZ - 2)&lt;/font&gt;" style="fillColor=none;strokeColor=#545B64;dashed=1;verticalAlign=top;fontStyle=0;fontColor=#147EBA;whiteSpace=wrap;html=1;fontFamily=Helvetica;" parent="UFwQga8of8685l1iYrwp-65" vertex="1">
          <mxGeometry x="-24" y="171" width="650" height="108" as="geometry" />
        </mxCell>
        <mxCell id="UFwQga8of8685l1iYrwp-74" value="&lt;font color=&quot;#4d4d4d&quot;&gt;Zona de disponibilidade (AZ - 3)&lt;/font&gt;" style="fillColor=none;strokeColor=#545B64;dashed=1;verticalAlign=top;fontStyle=0;fontColor=#147EBA;whiteSpace=wrap;html=1;fontFamily=Helvetica;" parent="UFwQga8of8685l1iYrwp-65" vertex="1">
          <mxGeometry x="-24" y="301" width="650" height="108" as="geometry" />
        </mxCell>
        <mxCell id="UFwQga8of8685l1iYrwp-75" value="Public subnet" style="points=[[0,0],[0.25,0],[0.5,0],[0.75,0],[1,0],[1,0.25],[1,0.5],[1,0.75],[1,1],[0.75,1],[0.5,1],[0.25,1],[0,1],[0,0.75],[0,0.5],[0,0.25]];outlineConnect=0;gradientColor=none;html=1;whiteSpace=wrap;fontSize=12;fontStyle=0;container=1;pointerEvents=0;collapsible=0;recursiveResize=0;shape=mxgraph.aws4.group;grIcon=mxgraph.aws4.group_security_group;grStroke=0;strokeColor=#7AA116;fillColor=#F2F6E8;verticalAlign=top;align=left;spacingLeft=30;fontColor=#248814;dashed=0;fontFamily=Helvetica;" parent="UFwQga8of8685l1iYrwp-65" vertex="1">
          <mxGeometry x="23" y="67" width="265" height="69" as="geometry" />
        </mxCell>
        <mxCell id="UFwQga8of8685l1iYrwp-101" value="172.31.0.0/20&lt;br&gt;&lt;br&gt;(4.096 endereços)" style="text;html=1;align=center;verticalAlign=middle;whiteSpace=wrap;rounded=0;fontFamily=Helvetica;" parent="UFwQga8of8685l1iYrwp-75" vertex="1">
          <mxGeometry x="102.5" y="19.5" width="146.5" height="30" as="geometry" />
        </mxCell>
        <mxCell id="UFwQga8of8685l1iYrwp-84" value="Public subnet" style="points=[[0,0],[0.25,0],[0.5,0],[0.75,0],[1,0],[1,0.25],[1,0.5],[1,0.75],[1,1],[0.75,1],[0.5,1],[0.25,1],[0,1],[0,0.75],[0,0.5],[0,0.25]];outlineConnect=0;gradientColor=none;html=1;whiteSpace=wrap;fontSize=12;fontStyle=0;container=1;pointerEvents=0;collapsible=0;recursiveResize=0;shape=mxgraph.aws4.group;grIcon=mxgraph.aws4.group_security_group;grStroke=0;strokeColor=#7AA116;fillColor=#F2F6E8;verticalAlign=top;align=left;spacingLeft=30;fontColor=#248814;dashed=0;fontFamily=Helvetica;" parent="UFwQga8of8685l1iYrwp-65" vertex="1">
          <mxGeometry x="23" y="197" width="265" height="69" as="geometry" />
        </mxCell>
        <mxCell id="UFwQga8of8685l1iYrwp-127" value="172.31.16.0/20&lt;br&gt;&lt;br&gt;(4.096 endereços)" style="text;html=1;align=center;verticalAlign=middle;whiteSpace=wrap;rounded=0;fontFamily=Helvetica;" parent="UFwQga8of8685l1iYrwp-84" vertex="1">
          <mxGeometry x="102.5" y="19.5" width="146.5" height="30" as="geometry" />
        </mxCell>
        <mxCell id="UFwQga8of8685l1iYrwp-85" value="Public subnet" style="points=[[0,0],[0.25,0],[0.5,0],[0.75,0],[1,0],[1,0.25],[1,0.5],[1,0.75],[1,1],[0.75,1],[0.5,1],[0.25,1],[0,1],[0,0.75],[0,0.5],[0,0.25]];outlineConnect=0;gradientColor=none;html=1;whiteSpace=wrap;fontSize=12;fontStyle=0;container=1;pointerEvents=0;collapsible=0;recursiveResize=0;shape=mxgraph.aws4.group;grIcon=mxgraph.aws4.group_security_group;grStroke=0;strokeColor=#7AA116;fillColor=#F2F6E8;verticalAlign=top;align=left;spacingLeft=30;fontColor=#248814;dashed=0;fontFamily=Helvetica;" parent="UFwQga8of8685l1iYrwp-65" vertex="1">
          <mxGeometry x="23" y="328" width="265" height="69" as="geometry" />
        </mxCell>
        <mxCell id="UFwQga8of8685l1iYrwp-128" value="172.31.32.0/20&lt;br&gt;&lt;br&gt;(4.096 endereços)" style="text;html=1;align=center;verticalAlign=middle;whiteSpace=wrap;rounded=0;fontFamily=Helvetica;" parent="UFwQga8of8685l1iYrwp-85" vertex="1">
          <mxGeometry x="102.5" y="19.5" width="146.5" height="30" as="geometry" />
        </mxCell>
        <mxCell id="UFwQga8of8685l1iYrwp-86" value="Private subnet" style="points=[[0,0],[0.25,0],[0.5,0],[0.75,0],[1,0],[1,0.25],[1,0.5],[1,0.75],[1,1],[0.75,1],[0.5,1],[0.25,1],[0,1],[0,0.75],[0,0.5],[0,0.25]];outlineConnect=0;gradientColor=none;html=1;whiteSpace=wrap;fontSize=12;fontStyle=0;container=1;pointerEvents=0;collapsible=0;recursiveResize=0;shape=mxgraph.aws4.group;grIcon=mxgraph.aws4.group_security_group;grStroke=0;strokeColor=#00A4A6;fillColor=#E6F6F7;verticalAlign=top;align=left;spacingLeft=30;fontColor=#147EBA;dashed=0;fontFamily=Helvetica;" parent="UFwQga8of8685l1iYrwp-65" vertex="1">
          <mxGeometry x="317" y="67" width="265" height="69" as="geometry" />
        </mxCell>
        <mxCell id="UFwQga8of8685l1iYrwp-88" value="Private subnet" style="points=[[0,0],[0.25,0],[0.5,0],[0.75,0],[1,0],[1,0.25],[1,0.5],[1,0.75],[1,1],[0.75,1],[0.5,1],[0.25,1],[0,1],[0,0.75],[0,0.5],[0,0.25]];outlineConnect=0;gradientColor=none;html=1;whiteSpace=wrap;fontSize=12;fontStyle=0;container=1;pointerEvents=0;collapsible=0;recursiveResize=0;shape=mxgraph.aws4.group;grIcon=mxgraph.aws4.group_security_group;grStroke=0;strokeColor=#00A4A6;fillColor=#E6F6F7;verticalAlign=top;align=left;spacingLeft=30;fontColor=#147EBA;dashed=0;fontFamily=Helvetica;" parent="UFwQga8of8685l1iYrwp-65" vertex="1">
          <mxGeometry x="317" y="197" width="265" height="69" as="geometry" />
        </mxCell>
        <mxCell id="UFwQga8of8685l1iYrwp-129" value="172.31.48.0/20&lt;br&gt;&lt;br&gt;(4.096 endereços)" style="text;html=1;align=center;verticalAlign=middle;whiteSpace=wrap;rounded=0;fontFamily=Helvetica;" parent="UFwQga8of8685l1iYrwp-88" vertex="1">
          <mxGeometry x="103.54999999999995" y="19.5" width="146.5" height="30" as="geometry" />
        </mxCell>
        <mxCell id="UFwQga8of8685l1iYrwp-99" value="Private subnet" style="points=[[0,0],[0.25,0],[0.5,0],[0.75,0],[1,0],[1,0.25],[1,0.5],[1,0.75],[1,1],[0.75,1],[0.5,1],[0.25,1],[0,1],[0,0.75],[0,0.5],[0,0.25]];outlineConnect=0;gradientColor=none;html=1;whiteSpace=wrap;fontSize=12;fontStyle=0;container=1;pointerEvents=0;collapsible=0;recursiveResize=0;shape=mxgraph.aws4.group;grIcon=mxgraph.aws4.group_security_group;grStroke=0;strokeColor=#00A4A6;fillColor=#E6F6F7;verticalAlign=top;align=left;spacingLeft=30;fontColor=#147EBA;dashed=0;fontFamily=Helvetica;" parent="UFwQga8of8685l1iYrwp-65" vertex="1">
          <mxGeometry x="317" y="328" width="265" height="69" as="geometry" />
        </mxCell>
        <mxCell id="UFwQga8of8685l1iYrwp-130" value="172.31.64.0/20&lt;br&gt;&lt;br&gt;(4.096 endereços)" style="text;html=1;align=center;verticalAlign=middle;whiteSpace=wrap;rounded=0;fontFamily=Helvetica;" parent="UFwQga8of8685l1iYrwp-99" vertex="1">
          <mxGeometry x="98.68000000000006" y="19.5" width="146.5" height="30" as="geometry" />
        </mxCell>
        <mxCell id="UFwQga8of8685l1iYrwp-126" value="172.31.32.0/20&lt;br&gt;&lt;br&gt;(4.096 endereços)" style="text;html=1;align=center;verticalAlign=middle;whiteSpace=wrap;rounded=0;fontFamily=Helvetica;" parent="UFwQga8of8685l1iYrwp-65" vertex="1">
          <mxGeometry x="426" y="86.5" width="146.5" height="30" as="geometry" />
        </mxCell>
        <mxCell id="UFwQga8of8685l1iYrwp-102" value="&lt;font data-font-src=&quot;https://fonts.googleapis.com/css?family=Fredoka&quot;&gt;Região sa-east-1 (São Paulo)&lt;/font&gt;" style="points=[[0,0],[0.25,0],[0.5,0],[0.75,0],[1,0],[1,0.25],[1,0.5],[1,0.75],[1,1],[0.75,1],[0.5,1],[0.25,1],[0,1],[0,0.75],[0,0.5],[0,0.25]];outlineConnect=0;gradientColor=none;html=1;whiteSpace=wrap;fontSize=12;fontStyle=0;container=1;pointerEvents=0;collapsible=0;recursiveResize=0;shape=mxgraph.aws4.group;grIcon=mxgraph.aws4.group_region;strokeColor=#00A4A6;fillColor=none;verticalAlign=top;align=left;spacingLeft=30;fontColor=#147EBA;dashed=1;fontFamily=Helvetica;" parent="1" vertex="1">
          <mxGeometry x="1122" y="601" width="687" height="516" as="geometry" />
        </mxCell>
        <mxCell id="UFwQga8of8685l1iYrwp-103" value="&lt;font color=&quot;#000000&quot; data-font-src=&quot;https://fonts.googleapis.com/css?family=Fredoka&quot;&gt;VPC 172.31.0.0/16 (65.536 endereços)&lt;/font&gt;" style="points=[[0,0],[0.25,0],[0.5,0],[0.75,0],[1,0],[1,0.25],[1,0.5],[1,0.75],[1,1],[0.75,1],[0.5,1],[0.25,1],[0,1],[0,0.75],[0,0.5],[0,0.25]];outlineConnect=0;gradientColor=none;html=1;whiteSpace=wrap;fontSize=12;fontStyle=0;container=1;pointerEvents=0;collapsible=0;recursiveResize=0;shape=mxgraph.aws4.group;grIcon=mxgraph.aws4.group_vpc2;strokeColor=#8C4FFF;fillColor=none;verticalAlign=top;align=left;spacingLeft=30;fontColor=#AAB7B8;dashed=0;fontFamily=Helvetica;" parent="UFwQga8of8685l1iYrwp-102" vertex="1">
          <mxGeometry x="43" y="38" width="606" height="442" as="geometry" />
        </mxCell>
        <mxCell id="UFwQga8of8685l1iYrwp-104" value="&lt;font color=&quot;#4d4d4d&quot; data-font-src=&quot;https://fonts.googleapis.com/css?family=Fredoka&quot;&gt;Zona de disponibilidade (AZ - 1)&lt;/font&gt;" style="fillColor=none;strokeColor=#545B64;dashed=1;verticalAlign=top;fontStyle=0;fontColor=#147EBA;whiteSpace=wrap;html=1;fontFamily=Helvetica;" parent="UFwQga8of8685l1iYrwp-103" vertex="1">
          <mxGeometry x="-24" y="41" width="650" height="108" as="geometry" />
        </mxCell>
        <mxCell id="UFwQga8of8685l1iYrwp-105" value="&lt;font color=&quot;#4d4d4d&quot; data-font-src=&quot;https://fonts.googleapis.com/css?family=Fredoka&quot;&gt;Zona de disponibilidade (AZ - 2)&lt;/font&gt;" style="fillColor=none;strokeColor=#545B64;dashed=1;verticalAlign=top;fontStyle=0;fontColor=#147EBA;whiteSpace=wrap;html=1;fontFamily=Helvetica;" parent="UFwQga8of8685l1iYrwp-103" vertex="1">
          <mxGeometry x="-24" y="171" width="650" height="108" as="geometry" />
        </mxCell>
        <mxCell id="UFwQga8of8685l1iYrwp-106" value="&lt;font color=&quot;#4d4d4d&quot; data-font-src=&quot;https://fonts.googleapis.com/css?family=Fredoka&quot;&gt;Zona de disponibilidade (AZ - 3)&lt;/font&gt;" style="fillColor=none;strokeColor=#545B64;dashed=1;verticalAlign=top;fontStyle=0;fontColor=#147EBA;whiteSpace=wrap;html=1;fontFamily=Helvetica;" parent="UFwQga8of8685l1iYrwp-103" vertex="1">
          <mxGeometry x="-24" y="301" width="650" height="108" as="geometry" />
        </mxCell>
        <mxCell id="UFwQga8of8685l1iYrwp-131" value="Conta AWS" style="points=[[0,0],[0.25,0],[0.5,0],[0.75,0],[1,0],[1,0.25],[1,0.5],[1,0.75],[1,1],[0.75,1],[0.5,1],[0.25,1],[0,1],[0,0.75],[0,0.5],[0,0.25]];outlineConnect=0;gradientColor=none;html=1;whiteSpace=wrap;fontSize=12;fontStyle=0;container=0;pointerEvents=0;collapsible=0;recursiveResize=0;shape=mxgraph.aws4.group;grIcon=mxgraph.aws4.group_account;strokeColor=#CD2264;fillColor=none;verticalAlign=top;align=left;spacingLeft=30;fontColor=#CD2264;dashed=0;" parent="1" vertex="1">
          <mxGeometry x="470" y="1224" width="719" height="510" as="geometry" />
        </mxCell>
        <mxCell id="UFwQga8of8685l1iYrwp-366" style="edgeStyle=orthogonalEdgeStyle;rounded=0;orthogonalLoop=1;jettySize=auto;html=1;" parent="1" source="UFwQga8of8685l1iYrwp-264" target="UFwQga8of8685l1iYrwp-263" edge="1">
          <mxGeometry relative="1" as="geometry" />
        </mxCell>
        <mxCell id="UFwQga8of8685l1iYrwp-264" value="&lt;b&gt;&lt;font color=&quot;#000000&quot;&gt;Usuário&lt;/font&gt;&lt;/b&gt;" style="sketch=0;outlineConnect=0;fontColor=#232F3E;gradientColor=none;fillColor=#000000;strokeColor=none;dashed=0;verticalLabelPosition=bottom;verticalAlign=top;align=center;html=1;fontSize=12;fontStyle=0;aspect=fixed;pointerEvents=1;shape=mxgraph.aws4.user;" parent="1" vertex="1">
          <mxGeometry x="419" y="1432.5" width="38" height="38" as="geometry" />
        </mxCell>
        <mxCell id="UFwQga8of8685l1iYrwp-132" value="Region sa-east-1 (São Paulo)" style="points=[[0,0],[0.25,0],[0.5,0],[0.75,0],[1,0],[1,0.25],[1,0.5],[1,0.75],[1,1],[0.75,1],[0.5,1],[0.25,1],[0,1],[0,0.75],[0,0.5],[0,0.25]];outlineConnect=0;gradientColor=none;html=1;whiteSpace=wrap;fontSize=12;fontStyle=0;container=0;pointerEvents=0;collapsible=0;recursiveResize=0;shape=mxgraph.aws4.group;grIcon=mxgraph.aws4.group_region;strokeColor=#00A4A6;fillColor=none;verticalAlign=top;align=left;spacingLeft=30;fontColor=#147EBA;dashed=1;" parent="1" vertex="1">
          <mxGeometry x="497" y="1257" width="669" height="452" as="geometry" />
        </mxCell>
        <mxCell id="UFwQga8of8685l1iYrwp-135" value="&lt;font style=&quot;font-size: 11px;&quot;&gt;AZ, sa-east-1a&lt;/font&gt;" style="sketch=0;outlineConnect=0;gradientColor=none;html=1;whiteSpace=wrap;fontSize=12;fontStyle=0;shape=mxgraph.aws4.group;grIcon=mxgraph.aws4.group_availability_zone;strokeColor=#545B64;fillColor=none;verticalAlign=top;align=left;spacingLeft=30;fontColor=#545B64;dashed=1;" parent="1" vertex="1">
          <mxGeometry x="605" y="1284" width="160" height="408" as="geometry" />
        </mxCell>
        <mxCell id="UFwQga8of8685l1iYrwp-139" value="&lt;font style=&quot;font-size: 10px;&quot;&gt;Public subnet&lt;/font&gt;" style="points=[[0,0],[0.25,0],[0.5,0],[0.75,0],[1,0],[1,0.25],[1,0.5],[1,0.75],[1,1],[0.75,1],[0.5,1],[0.25,1],[0,1],[0,0.75],[0,0.5],[0,0.25]];outlineConnect=0;gradientColor=none;html=1;whiteSpace=wrap;fontSize=12;fontStyle=0;container=1;pointerEvents=0;collapsible=0;recursiveResize=0;shape=mxgraph.aws4.group;grIcon=mxgraph.aws4.group_security_group;grStroke=0;strokeColor=#7AA116;fillColor=#F2F6E8;verticalAlign=top;align=left;spacingLeft=30;fontColor=#248814;dashed=0;" parent="1" vertex="1">
          <mxGeometry x="618" y="1325" width="140" height="125" as="geometry" />
        </mxCell>
        <mxCell id="UFwQga8of8685l1iYrwp-141" value="" style="sketch=0;points=[[0,0,0],[0.25,0,0],[0.5,0,0],[0.75,0,0],[1,0,0],[0,1,0],[0.25,1,0],[0.5,1,0],[0.75,1,0],[1,1,0],[0,0.25,0],[0,0.5,0],[0,0.75,0],[1,0.25,0],[1,0.5,0],[1,0.75,0]];outlineConnect=0;fontColor=#232F3E;fillColor=#ED7100;strokeColor=#ffffff;dashed=0;verticalLabelPosition=bottom;verticalAlign=top;align=center;html=1;fontSize=12;fontStyle=0;aspect=fixed;shape=mxgraph.aws4.resourceIcon;resIcon=mxgraph.aws4.ec2;" parent="UFwQga8of8685l1iYrwp-139" vertex="1">
          <mxGeometry x="38" y="50" width="50" height="50" as="geometry" />
        </mxCell>
        <mxCell id="UFwQga8of8685l1iYrwp-147" value="&lt;font color=&quot;#ff3333&quot; style=&quot;font-size: 9px;&quot;&gt;Security Group&lt;/font&gt;" style="text;html=1;align=center;verticalAlign=middle;whiteSpace=wrap;rounded=0;" parent="UFwQga8of8685l1iYrwp-139" vertex="1">
          <mxGeometry x="30.99999999999999" y="25" width="71.97" height="21" as="geometry" />
        </mxCell>
        <mxCell id="UFwQga8of8685l1iYrwp-180" style="edgeStyle=orthogonalEdgeStyle;rounded=0;orthogonalLoop=1;jettySize=auto;html=1;exitX=0.5;exitY=1;exitDx=0;exitDy=0;" parent="UFwQga8of8685l1iYrwp-139" source="UFwQga8of8685l1iYrwp-147" target="UFwQga8of8685l1iYrwp-147" edge="1">
          <mxGeometry relative="1" as="geometry" />
        </mxCell>
        <mxCell id="UFwQga8of8685l1iYrwp-149" value="" style="whiteSpace=wrap;html=1;aspect=fixed;fillColor=none;strokeColor=#FF3333;" parent="UFwQga8of8685l1iYrwp-139" vertex="1">
          <mxGeometry x="21.5" y="30" width="85" height="85" as="geometry" />
        </mxCell>
        <mxCell id="UFwQga8of8685l1iYrwp-140" value="&lt;font style=&quot;font-size: 10px;&quot;&gt;Private subnet&lt;/font&gt;" style="points=[[0,0],[0.25,0],[0.5,0],[0.75,0],[1,0],[1,0.25],[1,0.5],[1,0.75],[1,1],[0.75,1],[0.5,1],[0.25,1],[0,1],[0,0.75],[0,0.5],[0,0.25]];outlineConnect=0;gradientColor=none;html=1;whiteSpace=wrap;fontSize=12;fontStyle=0;container=1;pointerEvents=0;collapsible=0;recursiveResize=0;shape=mxgraph.aws4.group;grIcon=mxgraph.aws4.group_security_group;grStroke=0;strokeColor=#00A4A6;fillColor=#E6F6F7;verticalAlign=top;align=left;spacingLeft=30;fontColor=#147EBA;dashed=0;" parent="1" vertex="1">
          <mxGeometry x="618" y="1457" width="140" height="125" as="geometry" />
        </mxCell>
        <mxCell id="UFwQga8of8685l1iYrwp-168" value="" style="whiteSpace=wrap;html=1;aspect=fixed;fillColor=none;strokeColor=#FF3333;" parent="UFwQga8of8685l1iYrwp-140" vertex="1">
          <mxGeometry x="22.49000000000001" y="31" width="85" height="85" as="geometry" />
        </mxCell>
        <mxCell id="UFwQga8of8685l1iYrwp-153" value="" style="sketch=0;points=[[0,0,0],[0.25,0,0],[0.5,0,0],[0.75,0,0],[1,0,0],[0,1,0],[0.25,1,0],[0.5,1,0],[0.75,1,0],[1,1,0],[0,0.25,0],[0,0.5,0],[0,0.75,0],[1,0.25,0],[1,0.5,0],[1,0.75,0]];outlineConnect=0;fontColor=#232F3E;fillColor=#0000CC;strokeColor=#ffffff;dashed=0;verticalLabelPosition=bottom;verticalAlign=top;align=center;html=1;fontSize=12;fontStyle=0;aspect=fixed;shape=mxgraph.aws4.resourceIcon;resIcon=mxgraph.aws4.rds;" parent="UFwQga8of8685l1iYrwp-140" vertex="1">
          <mxGeometry x="39.990000000000066" y="51" width="50" height="50" as="geometry" />
        </mxCell>
        <mxCell id="UFwQga8of8685l1iYrwp-171" value="&lt;b&gt;&lt;font style=&quot;font-size: 10px;&quot;&gt;RDS&lt;/font&gt;&lt;/b&gt;" style="text;html=1;align=center;verticalAlign=middle;whiteSpace=wrap;rounded=0;" parent="UFwQga8of8685l1iYrwp-140" vertex="1">
          <mxGeometry x="54.49000000000001" y="101" width="21" height="11" as="geometry" />
        </mxCell>
        <mxCell id="UFwQga8of8685l1iYrwp-154" value="&lt;font color=&quot;#ff3333&quot; style=&quot;font-size: 9px;&quot;&gt;Security Group&lt;/font&gt;" style="text;html=1;align=center;verticalAlign=middle;whiteSpace=wrap;rounded=0;" parent="UFwQga8of8685l1iYrwp-140" vertex="1">
          <mxGeometry x="31.00999999999999" y="27" width="71.97" height="21" as="geometry" />
        </mxCell>
        <mxCell id="UFwQga8of8685l1iYrwp-210" value="" style="sketch=0;outlineConnect=0;fontColor=#232F3E;gradientColor=none;fillColor=#8C4FFF;strokeColor=none;dashed=0;verticalLabelPosition=bottom;verticalAlign=top;align=center;html=1;fontSize=12;fontStyle=0;aspect=fixed;pointerEvents=1;shape=mxgraph.aws4.network_access_control_list;" parent="UFwQga8of8685l1iYrwp-140" vertex="1">
          <mxGeometry x="-9" y="52.5" width="20" height="20" as="geometry" />
        </mxCell>
        <mxCell id="UFwQga8of8685l1iYrwp-320" value="&lt;font style=&quot;font-size: 6px;&quot;&gt;&lt;b&gt;NACL&lt;/b&gt;&lt;/font&gt;" style="text;html=1;align=center;verticalAlign=middle;whiteSpace=wrap;rounded=0;" parent="UFwQga8of8685l1iYrwp-140" vertex="1">
          <mxGeometry x="-10" y="69" width="22" height="12" as="geometry" />
        </mxCell>
        <mxCell id="UFwQga8of8685l1iYrwp-152" value="" style="sketch=0;outlineConnect=0;fontColor=#232F3E;gradientColor=none;fillColor=#8C4FFF;strokeColor=none;dashed=0;verticalLabelPosition=bottom;verticalAlign=top;align=center;html=1;fontSize=12;fontStyle=0;aspect=fixed;pointerEvents=1;shape=mxgraph.aws4.network_access_control_list;" parent="1" vertex="1">
          <mxGeometry x="609" y="1381" width="20" height="20" as="geometry" />
        </mxCell>
        <mxCell id="UFwQga8of8685l1iYrwp-172" value="" style="sketch=0;points=[[0,0,0],[0.25,0,0],[0.5,0,0],[0.75,0,0],[1,0,0],[0,1,0],[0.25,1,0],[0.5,1,0],[0.75,1,0],[1,1,0],[0,0.25,0],[0,0.5,0],[0,0.75,0],[1,0.25,0],[1,0.5,0],[1,0.75,0]];outlineConnect=0;fontColor=#232F3E;fillColor=#7AA116;strokeColor=#ffffff;dashed=0;verticalLabelPosition=bottom;verticalAlign=top;align=center;html=1;fontSize=12;fontStyle=0;aspect=fixed;shape=mxgraph.aws4.resourceIcon;resIcon=mxgraph.aws4.s3;" parent="1" vertex="1">
          <mxGeometry x="658" y="1610" width="50" height="50" as="geometry" />
        </mxCell>
        <mxCell id="UFwQga8of8685l1iYrwp-181" value="&lt;b&gt;&lt;font style=&quot;font-size: 10px;&quot;&gt;S3&lt;/font&gt;&lt;/b&gt;" style="text;html=1;align=center;verticalAlign=middle;whiteSpace=wrap;rounded=0;" parent="1" vertex="1">
          <mxGeometry x="674" y="1660" width="18" height="19" as="geometry" />
        </mxCell>
        <mxCell id="UFwQga8of8685l1iYrwp-263" value="" style="sketch=0;outlineConnect=0;fontColor=#232F3E;gradientColor=none;fillColor=#8C4FFF;strokeColor=none;dashed=0;verticalLabelPosition=bottom;verticalAlign=top;align=center;html=1;fontSize=12;fontStyle=0;aspect=fixed;pointerEvents=1;shape=mxgraph.aws4.internet_gateway;" parent="1" vertex="1">
          <mxGeometry x="517" y="1439" width="25" height="25" as="geometry" />
        </mxCell>
        <mxCell id="UFwQga8of8685l1iYrwp-267" value="&lt;font style=&quot;font-size: 6px;&quot;&gt;&lt;b&gt;NACL&lt;/b&gt;&lt;/font&gt;" style="text;html=1;align=center;verticalAlign=middle;whiteSpace=wrap;rounded=0;" parent="1" vertex="1">
          <mxGeometry x="608" y="1397" width="22" height="12" as="geometry" />
        </mxCell>
        <mxCell id="UFwQga8of8685l1iYrwp-326" value="&lt;font style=&quot;font-size: 11px;&quot;&gt;AZ, sa-east-1b&lt;/font&gt;" style="sketch=0;outlineConnect=0;gradientColor=none;html=1;whiteSpace=wrap;fontSize=12;fontStyle=0;shape=mxgraph.aws4.group;grIcon=mxgraph.aws4.group_availability_zone;strokeColor=#545B64;fillColor=none;verticalAlign=top;align=left;spacingLeft=30;fontColor=#545B64;dashed=1;" parent="1" vertex="1">
          <mxGeometry x="780" y="1284" width="160" height="408" as="geometry" />
        </mxCell>
        <mxCell id="UFwQga8of8685l1iYrwp-327" value="&lt;font style=&quot;font-size: 10px;&quot;&gt;Public subnet&lt;/font&gt;" style="points=[[0,0],[0.25,0],[0.5,0],[0.75,0],[1,0],[1,0.25],[1,0.5],[1,0.75],[1,1],[0.75,1],[0.5,1],[0.25,1],[0,1],[0,0.75],[0,0.5],[0,0.25]];outlineConnect=0;gradientColor=none;html=1;whiteSpace=wrap;fontSize=12;fontStyle=0;container=1;pointerEvents=0;collapsible=0;recursiveResize=0;shape=mxgraph.aws4.group;grIcon=mxgraph.aws4.group_security_group;grStroke=0;strokeColor=#7AA116;fillColor=#F2F6E8;verticalAlign=top;align=left;spacingLeft=30;fontColor=#248814;dashed=0;" parent="1" vertex="1">
          <mxGeometry x="793" y="1325" width="140" height="125" as="geometry" />
        </mxCell>
        <mxCell id="UFwQga8of8685l1iYrwp-328" value="" style="sketch=0;points=[[0,0,0],[0.25,0,0],[0.5,0,0],[0.75,0,0],[1,0,0],[0,1,0],[0.25,1,0],[0.5,1,0],[0.75,1,0],[1,1,0],[0,0.25,0],[0,0.5,0],[0,0.75,0],[1,0.25,0],[1,0.5,0],[1,0.75,0]];outlineConnect=0;fontColor=#232F3E;fillColor=#ED7100;strokeColor=#ffffff;dashed=0;verticalLabelPosition=bottom;verticalAlign=top;align=center;html=1;fontSize=12;fontStyle=0;aspect=fixed;shape=mxgraph.aws4.resourceIcon;resIcon=mxgraph.aws4.ec2;" parent="UFwQga8of8685l1iYrwp-327" vertex="1">
          <mxGeometry x="38" y="50" width="50" height="50" as="geometry" />
        </mxCell>
        <mxCell id="UFwQga8of8685l1iYrwp-329" value="&lt;font color=&quot;#ff3333&quot; style=&quot;font-size: 9px;&quot;&gt;Security Group&lt;/font&gt;" style="text;html=1;align=center;verticalAlign=middle;whiteSpace=wrap;rounded=0;" parent="UFwQga8of8685l1iYrwp-327" vertex="1">
          <mxGeometry x="30.99999999999999" y="25" width="71.97" height="21" as="geometry" />
        </mxCell>
        <mxCell id="UFwQga8of8685l1iYrwp-330" style="edgeStyle=orthogonalEdgeStyle;rounded=0;orthogonalLoop=1;jettySize=auto;html=1;exitX=0.5;exitY=1;exitDx=0;exitDy=0;" parent="UFwQga8of8685l1iYrwp-327" source="UFwQga8of8685l1iYrwp-329" target="UFwQga8of8685l1iYrwp-329" edge="1">
          <mxGeometry relative="1" as="geometry" />
        </mxCell>
        <mxCell id="UFwQga8of8685l1iYrwp-331" value="" style="whiteSpace=wrap;html=1;aspect=fixed;fillColor=none;strokeColor=#FF3333;" parent="UFwQga8of8685l1iYrwp-327" vertex="1">
          <mxGeometry x="21.5" y="30" width="85" height="85" as="geometry" />
        </mxCell>
        <mxCell id="UFwQga8of8685l1iYrwp-332" value="&lt;font style=&quot;font-size: 10px;&quot;&gt;Private subnet&lt;/font&gt;" style="points=[[0,0],[0.25,0],[0.5,0],[0.75,0],[1,0],[1,0.25],[1,0.5],[1,0.75],[1,1],[0.75,1],[0.5,1],[0.25,1],[0,1],[0,0.75],[0,0.5],[0,0.25]];outlineConnect=0;gradientColor=none;html=1;whiteSpace=wrap;fontSize=12;fontStyle=0;container=1;pointerEvents=0;collapsible=0;recursiveResize=0;shape=mxgraph.aws4.group;grIcon=mxgraph.aws4.group_security_group;grStroke=0;strokeColor=#00A4A6;fillColor=#E6F6F7;verticalAlign=top;align=left;spacingLeft=30;fontColor=#147EBA;dashed=0;" parent="1" vertex="1">
          <mxGeometry x="793" y="1457" width="140" height="125" as="geometry" />
        </mxCell>
        <mxCell id="UFwQga8of8685l1iYrwp-333" value="" style="sketch=0;points=[[0,0,0],[0.25,0,0],[0.5,0,0],[0.75,0,0],[1,0,0],[0,1,0],[0.25,1,0],[0.5,1,0],[0.75,1,0],[1,1,0],[0,0.25,0],[0,0.5,0],[0,0.75,0],[1,0.25,0],[1,0.5,0],[1,0.75,0]];outlineConnect=0;fontColor=#232F3E;fillColor=#0000CC;strokeColor=#ffffff;dashed=0;verticalLabelPosition=bottom;verticalAlign=top;align=center;html=1;fontSize=12;fontStyle=0;aspect=fixed;shape=mxgraph.aws4.resourceIcon;resIcon=mxgraph.aws4.rds;" parent="UFwQga8of8685l1iYrwp-332" vertex="1">
          <mxGeometry x="39.990000000000066" y="51" width="50" height="50" as="geometry" />
        </mxCell>
        <mxCell id="UFwQga8of8685l1iYrwp-334" value="&lt;b&gt;&lt;font style=&quot;font-size: 10px;&quot;&gt;RDS&lt;/font&gt;&lt;/b&gt;" style="text;html=1;align=center;verticalAlign=middle;whiteSpace=wrap;rounded=0;" parent="UFwQga8of8685l1iYrwp-332" vertex="1">
          <mxGeometry x="54.49000000000001" y="101" width="21" height="11" as="geometry" />
        </mxCell>
        <mxCell id="UFwQga8of8685l1iYrwp-335" value="&lt;font color=&quot;#ff3333&quot; style=&quot;font-size: 9px;&quot;&gt;Security Group&lt;/font&gt;" style="text;html=1;align=center;verticalAlign=middle;whiteSpace=wrap;rounded=0;" parent="UFwQga8of8685l1iYrwp-332" vertex="1">
          <mxGeometry x="31.00999999999999" y="27" width="71.97" height="21" as="geometry" />
        </mxCell>
        <mxCell id="UFwQga8of8685l1iYrwp-336" value="" style="whiteSpace=wrap;html=1;aspect=fixed;fillColor=none;strokeColor=#FF3333;" parent="UFwQga8of8685l1iYrwp-332" vertex="1">
          <mxGeometry x="22.49000000000001" y="31" width="85" height="85" as="geometry" />
        </mxCell>
        <mxCell id="UFwQga8of8685l1iYrwp-337" value="" style="sketch=0;outlineConnect=0;fontColor=#232F3E;gradientColor=none;fillColor=#8C4FFF;strokeColor=none;dashed=0;verticalLabelPosition=bottom;verticalAlign=top;align=center;html=1;fontSize=12;fontStyle=0;aspect=fixed;pointerEvents=1;shape=mxgraph.aws4.network_access_control_list;" parent="UFwQga8of8685l1iYrwp-332" vertex="1">
          <mxGeometry x="-9" y="52.5" width="20" height="20" as="geometry" />
        </mxCell>
        <mxCell id="UFwQga8of8685l1iYrwp-338" value="&lt;font style=&quot;font-size: 6px;&quot;&gt;&lt;b&gt;NACL&lt;/b&gt;&lt;/font&gt;" style="text;html=1;align=center;verticalAlign=middle;whiteSpace=wrap;rounded=0;" parent="UFwQga8of8685l1iYrwp-332" vertex="1">
          <mxGeometry x="-10" y="69" width="22" height="12" as="geometry" />
        </mxCell>
        <mxCell id="UFwQga8of8685l1iYrwp-340" value="" style="sketch=0;outlineConnect=0;fontColor=#232F3E;gradientColor=none;fillColor=#8C4FFF;strokeColor=none;dashed=0;verticalLabelPosition=bottom;verticalAlign=top;align=center;html=1;fontSize=12;fontStyle=0;aspect=fixed;pointerEvents=1;shape=mxgraph.aws4.network_access_control_list;" parent="1" vertex="1">
          <mxGeometry x="784" y="1381" width="20" height="20" as="geometry" />
        </mxCell>
        <mxCell id="UFwQga8of8685l1iYrwp-341" value="" style="sketch=0;points=[[0,0,0],[0.25,0,0],[0.5,0,0],[0.75,0,0],[1,0,0],[0,1,0],[0.25,1,0],[0.5,1,0],[0.75,1,0],[1,1,0],[0,0.25,0],[0,0.5,0],[0,0.75,0],[1,0.25,0],[1,0.5,0],[1,0.75,0]];outlineConnect=0;fontColor=#232F3E;fillColor=#7AA116;strokeColor=#ffffff;dashed=0;verticalLabelPosition=bottom;verticalAlign=top;align=center;html=1;fontSize=12;fontStyle=0;aspect=fixed;shape=mxgraph.aws4.resourceIcon;resIcon=mxgraph.aws4.s3;" parent="1" vertex="1">
          <mxGeometry x="833" y="1610" width="50" height="50" as="geometry" />
        </mxCell>
        <mxCell id="UFwQga8of8685l1iYrwp-342" value="&lt;b&gt;&lt;font style=&quot;font-size: 10px;&quot;&gt;S3&lt;/font&gt;&lt;/b&gt;" style="text;html=1;align=center;verticalAlign=middle;whiteSpace=wrap;rounded=0;" parent="1" vertex="1">
          <mxGeometry x="849" y="1660" width="18" height="19" as="geometry" />
        </mxCell>
        <mxCell id="UFwQga8of8685l1iYrwp-343" value="&lt;font style=&quot;font-size: 6px;&quot;&gt;&lt;b&gt;NACL&lt;/b&gt;&lt;/font&gt;" style="text;html=1;align=center;verticalAlign=middle;whiteSpace=wrap;rounded=0;" parent="1" vertex="1">
          <mxGeometry x="783" y="1397" width="22" height="12" as="geometry" />
        </mxCell>
        <mxCell id="UFwQga8of8685l1iYrwp-346" value="&lt;font style=&quot;font-size: 11px;&quot;&gt;AZ, sa-east-1c&lt;/font&gt;" style="sketch=0;outlineConnect=0;gradientColor=none;html=1;whiteSpace=wrap;fontSize=12;fontStyle=0;shape=mxgraph.aws4.group;grIcon=mxgraph.aws4.group_availability_zone;strokeColor=#545B64;fillColor=none;verticalAlign=top;align=left;spacingLeft=30;fontColor=#545B64;dashed=1;" parent="1" vertex="1">
          <mxGeometry x="957" y="1284" width="160" height="408" as="geometry" />
        </mxCell>
        <mxCell id="UFwQga8of8685l1iYrwp-347" value="&lt;font style=&quot;font-size: 10px;&quot;&gt;Public subnet&lt;/font&gt;" style="points=[[0,0],[0.25,0],[0.5,0],[0.75,0],[1,0],[1,0.25],[1,0.5],[1,0.75],[1,1],[0.75,1],[0.5,1],[0.25,1],[0,1],[0,0.75],[0,0.5],[0,0.25]];outlineConnect=0;gradientColor=none;html=1;whiteSpace=wrap;fontSize=12;fontStyle=0;container=1;pointerEvents=0;collapsible=0;recursiveResize=0;shape=mxgraph.aws4.group;grIcon=mxgraph.aws4.group_security_group;grStroke=0;strokeColor=#7AA116;fillColor=#F2F6E8;verticalAlign=top;align=left;spacingLeft=30;fontColor=#248814;dashed=0;" parent="1" vertex="1">
          <mxGeometry x="970" y="1325" width="140" height="125" as="geometry" />
        </mxCell>
        <mxCell id="UFwQga8of8685l1iYrwp-348" value="" style="sketch=0;points=[[0,0,0],[0.25,0,0],[0.5,0,0],[0.75,0,0],[1,0,0],[0,1,0],[0.25,1,0],[0.5,1,0],[0.75,1,0],[1,1,0],[0,0.25,0],[0,0.5,0],[0,0.75,0],[1,0.25,0],[1,0.5,0],[1,0.75,0]];outlineConnect=0;fontColor=#232F3E;fillColor=#ED7100;strokeColor=#ffffff;dashed=0;verticalLabelPosition=bottom;verticalAlign=top;align=center;html=1;fontSize=12;fontStyle=0;aspect=fixed;shape=mxgraph.aws4.resourceIcon;resIcon=mxgraph.aws4.ec2;" parent="UFwQga8of8685l1iYrwp-347" vertex="1">
          <mxGeometry x="38" y="50" width="50" height="50" as="geometry" />
        </mxCell>
        <mxCell id="UFwQga8of8685l1iYrwp-349" value="&lt;font color=&quot;#ff3333&quot; style=&quot;font-size: 9px;&quot;&gt;Security Group&lt;/font&gt;" style="text;html=1;align=center;verticalAlign=middle;whiteSpace=wrap;rounded=0;" parent="UFwQga8of8685l1iYrwp-347" vertex="1">
          <mxGeometry x="30.99999999999999" y="25" width="71.97" height="21" as="geometry" />
        </mxCell>
        <mxCell id="UFwQga8of8685l1iYrwp-350" style="edgeStyle=orthogonalEdgeStyle;rounded=0;orthogonalLoop=1;jettySize=auto;html=1;exitX=0.5;exitY=1;exitDx=0;exitDy=0;" parent="UFwQga8of8685l1iYrwp-347" source="UFwQga8of8685l1iYrwp-349" target="UFwQga8of8685l1iYrwp-349" edge="1">
          <mxGeometry relative="1" as="geometry" />
        </mxCell>
        <mxCell id="UFwQga8of8685l1iYrwp-351" value="" style="whiteSpace=wrap;html=1;aspect=fixed;fillColor=none;strokeColor=#FF3333;" parent="UFwQga8of8685l1iYrwp-347" vertex="1">
          <mxGeometry x="21.5" y="30" width="85" height="85" as="geometry" />
        </mxCell>
        <mxCell id="UFwQga8of8685l1iYrwp-352" value="&lt;font style=&quot;font-size: 10px;&quot;&gt;Private subnet&lt;/font&gt;" style="points=[[0,0],[0.25,0],[0.5,0],[0.75,0],[1,0],[1,0.25],[1,0.5],[1,0.75],[1,1],[0.75,1],[0.5,1],[0.25,1],[0,1],[0,0.75],[0,0.5],[0,0.25]];outlineConnect=0;gradientColor=none;html=1;whiteSpace=wrap;fontSize=12;fontStyle=0;container=1;pointerEvents=0;collapsible=0;recursiveResize=0;shape=mxgraph.aws4.group;grIcon=mxgraph.aws4.group_security_group;grStroke=0;strokeColor=#00A4A6;fillColor=#E6F6F7;verticalAlign=top;align=left;spacingLeft=30;fontColor=#147EBA;dashed=0;" parent="1" vertex="1">
          <mxGeometry x="970" y="1457" width="140" height="125" as="geometry" />
        </mxCell>
        <mxCell id="UFwQga8of8685l1iYrwp-353" value="" style="sketch=0;points=[[0,0,0],[0.25,0,0],[0.5,0,0],[0.75,0,0],[1,0,0],[0,1,0],[0.25,1,0],[0.5,1,0],[0.75,1,0],[1,1,0],[0,0.25,0],[0,0.5,0],[0,0.75,0],[1,0.25,0],[1,0.5,0],[1,0.75,0]];outlineConnect=0;fontColor=#232F3E;fillColor=#0000CC;strokeColor=#ffffff;dashed=0;verticalLabelPosition=bottom;verticalAlign=top;align=center;html=1;fontSize=12;fontStyle=0;aspect=fixed;shape=mxgraph.aws4.resourceIcon;resIcon=mxgraph.aws4.rds;" parent="UFwQga8of8685l1iYrwp-352" vertex="1">
          <mxGeometry x="39.990000000000066" y="51" width="50" height="50" as="geometry" />
        </mxCell>
        <mxCell id="UFwQga8of8685l1iYrwp-354" value="&lt;b&gt;&lt;font style=&quot;font-size: 10px;&quot;&gt;RDS&lt;/font&gt;&lt;/b&gt;" style="text;html=1;align=center;verticalAlign=middle;whiteSpace=wrap;rounded=0;" parent="UFwQga8of8685l1iYrwp-352" vertex="1">
          <mxGeometry x="54.49000000000001" y="101" width="21" height="11" as="geometry" />
        </mxCell>
        <mxCell id="UFwQga8of8685l1iYrwp-355" value="&lt;font color=&quot;#ff3333&quot; style=&quot;font-size: 9px;&quot;&gt;Security Group&lt;/font&gt;" style="text;html=1;align=center;verticalAlign=middle;whiteSpace=wrap;rounded=0;" parent="UFwQga8of8685l1iYrwp-352" vertex="1">
          <mxGeometry x="31.00999999999999" y="27" width="71.97" height="21" as="geometry" />
        </mxCell>
        <mxCell id="UFwQga8of8685l1iYrwp-356" value="" style="whiteSpace=wrap;html=1;aspect=fixed;fillColor=none;strokeColor=#FF3333;" parent="UFwQga8of8685l1iYrwp-352" vertex="1">
          <mxGeometry x="22.49000000000001" y="31" width="85" height="85" as="geometry" />
        </mxCell>
        <mxCell id="UFwQga8of8685l1iYrwp-357" value="" style="sketch=0;outlineConnect=0;fontColor=#232F3E;gradientColor=none;fillColor=#8C4FFF;strokeColor=none;dashed=0;verticalLabelPosition=bottom;verticalAlign=top;align=center;html=1;fontSize=12;fontStyle=0;aspect=fixed;pointerEvents=1;shape=mxgraph.aws4.network_access_control_list;" parent="UFwQga8of8685l1iYrwp-352" vertex="1">
          <mxGeometry x="-9" y="52.5" width="20" height="20" as="geometry" />
        </mxCell>
        <mxCell id="UFwQga8of8685l1iYrwp-358" value="&lt;font style=&quot;font-size: 6px;&quot;&gt;&lt;b&gt;NACL&lt;/b&gt;&lt;/font&gt;" style="text;html=1;align=center;verticalAlign=middle;whiteSpace=wrap;rounded=0;" parent="UFwQga8of8685l1iYrwp-352" vertex="1">
          <mxGeometry x="-10" y="69" width="22" height="12" as="geometry" />
        </mxCell>
        <mxCell id="UFwQga8of8685l1iYrwp-360" value="" style="sketch=0;outlineConnect=0;fontColor=#232F3E;gradientColor=none;fillColor=#8C4FFF;strokeColor=none;dashed=0;verticalLabelPosition=bottom;verticalAlign=top;align=center;html=1;fontSize=12;fontStyle=0;aspect=fixed;pointerEvents=1;shape=mxgraph.aws4.network_access_control_list;" parent="1" vertex="1">
          <mxGeometry x="961" y="1381" width="20" height="20" as="geometry" />
        </mxCell>
        <mxCell id="UFwQga8of8685l1iYrwp-361" value="" style="sketch=0;points=[[0,0,0],[0.25,0,0],[0.5,0,0],[0.75,0,0],[1,0,0],[0,1,0],[0.25,1,0],[0.5,1,0],[0.75,1,0],[1,1,0],[0,0.25,0],[0,0.5,0],[0,0.75,0],[1,0.25,0],[1,0.5,0],[1,0.75,0]];outlineConnect=0;fontColor=#232F3E;fillColor=#7AA116;strokeColor=#ffffff;dashed=0;verticalLabelPosition=bottom;verticalAlign=top;align=center;html=1;fontSize=12;fontStyle=0;aspect=fixed;shape=mxgraph.aws4.resourceIcon;resIcon=mxgraph.aws4.s3;" parent="1" vertex="1">
          <mxGeometry x="1010" y="1610" width="50" height="50" as="geometry" />
        </mxCell>
        <mxCell id="UFwQga8of8685l1iYrwp-362" value="&lt;b&gt;&lt;font style=&quot;font-size: 10px;&quot;&gt;S3&lt;/font&gt;&lt;/b&gt;" style="text;html=1;align=center;verticalAlign=middle;whiteSpace=wrap;rounded=0;" parent="1" vertex="1">
          <mxGeometry x="1026" y="1660" width="18" height="19" as="geometry" />
        </mxCell>
        <mxCell id="UFwQga8of8685l1iYrwp-363" value="&lt;font style=&quot;font-size: 6px;&quot;&gt;&lt;b&gt;NACL&lt;/b&gt;&lt;/font&gt;" style="text;html=1;align=center;verticalAlign=middle;whiteSpace=wrap;rounded=0;" parent="1" vertex="1">
          <mxGeometry x="960" y="1397" width="22" height="12" as="geometry" />
        </mxCell>
        <mxCell id="UFwQga8of8685l1iYrwp-364" value="&lt;font color=&quot;#000000&quot;&gt;VPC&lt;/font&gt;" style="points=[[0,0],[0.25,0],[0.5,0],[0.75,0],[1,0],[1,0.25],[1,0.5],[1,0.75],[1,1],[0.75,1],[0.5,1],[0.25,1],[0,1],[0,0.75],[0,0.5],[0,0.25]];outlineConnect=0;gradientColor=none;html=1;whiteSpace=wrap;fontSize=12;fontStyle=0;container=1;pointerEvents=0;collapsible=0;recursiveResize=0;shape=mxgraph.aws4.group;grIcon=mxgraph.aws4.group_vpc2;strokeColor=#8C4FFF;fillColor=none;verticalAlign=top;align=left;spacingLeft=30;fontColor=#AAB7B8;dashed=0;" parent="1" vertex="1">
          <mxGeometry x="529" y="1314" width="611" height="289" as="geometry" />
        </mxCell>
        <mxCell id="UFwQga8of8685l1iYrwp-365" value="&lt;p style=&quot;line-height: 73%;&quot;&gt;&lt;font style=&quot;font-size: 9px;&quot;&gt;&lt;b style=&quot;&quot;&gt;Internet&lt;br&gt;Gateway&lt;/b&gt;&lt;/font&gt;&lt;/p&gt;" style="text;html=1;align=center;verticalAlign=middle;whiteSpace=wrap;rounded=0;" parent="UFwQga8of8685l1iYrwp-364" vertex="1">
          <mxGeometry x="5" y="150" width="31.5" height="20" as="geometry" />
        </mxCell>
        <mxCell id="UFwQga8of8685l1iYrwp-148" value="&lt;b&gt;&lt;font style=&quot;font-size: 10px;&quot;&gt;EC2&lt;/font&gt;&lt;/b&gt;" style="text;html=1;align=center;verticalAlign=middle;whiteSpace=wrap;rounded=0;" parent="UFwQga8of8685l1iYrwp-364" vertex="1">
          <mxGeometry x="137" y="109" width="30" height="15" as="geometry" />
        </mxCell>
        <mxCell id="UFwQga8of8685l1iYrwp-369" value="&lt;b&gt;&lt;font style=&quot;font-size: 10px;&quot;&gt;EC2&lt;/font&gt;&lt;/b&gt;" style="text;html=1;align=center;verticalAlign=middle;whiteSpace=wrap;rounded=0;" parent="UFwQga8of8685l1iYrwp-364" vertex="1">
          <mxGeometry x="313" y="109" width="30" height="15" as="geometry" />
        </mxCell>
        <mxCell id="UFwQga8of8685l1iYrwp-370" value="&lt;b&gt;&lt;font style=&quot;font-size: 10px;&quot;&gt;EC2&lt;/font&gt;&lt;/b&gt;" style="text;html=1;align=center;verticalAlign=middle;whiteSpace=wrap;rounded=0;" parent="UFwQga8of8685l1iYrwp-364" vertex="1">
          <mxGeometry x="491" y="109" width="30" height="15" as="geometry" />
        </mxCell>
        <mxCell id="52p-Td2zRtOQ-oU-Bymd-1" value="" style="sketch=0;outlineConnect=0;fontColor=#232F3E;gradientColor=none;fillColor=#8C4FFF;strokeColor=none;dashed=0;verticalLabelPosition=bottom;verticalAlign=top;align=center;html=1;fontSize=12;fontStyle=0;aspect=fixed;pointerEvents=1;shape=mxgraph.aws4.route_table;" vertex="1" parent="1">
          <mxGeometry x="1206" y="1138" width="78" height="76" as="geometry" />
        </mxCell>
        <mxCell id="52p-Td2zRtOQ-oU-Bymd-2" value="Conta AWS" style="points=[[0,0],[0.25,0],[0.5,0],[0.75,0],[1,0],[1,0.25],[1,0.5],[1,0.75],[1,1],[0.75,1],[0.5,1],[0.25,1],[0,1],[0,0.75],[0,0.5],[0,0.25]];outlineConnect=0;gradientColor=none;html=1;whiteSpace=wrap;fontSize=12;fontStyle=0;container=0;pointerEvents=0;collapsible=0;recursiveResize=0;shape=mxgraph.aws4.group;grIcon=mxgraph.aws4.group_account;strokeColor=#CD2264;fillColor=none;verticalAlign=top;align=left;spacingLeft=30;fontColor=#CD2264;dashed=0;" vertex="1" parent="1">
          <mxGeometry x="521" y="1838" width="582" height="447" as="geometry" />
        </mxCell>
        <mxCell id="52p-Td2zRtOQ-oU-Bymd-5" value="Region sa-east-1 (São Paulo)" style="points=[[0,0],[0.25,0],[0.5,0],[0.75,0],[1,0],[1,0.25],[1,0.5],[1,0.75],[1,1],[0.75,1],[0.5,1],[0.25,1],[0,1],[0,0.75],[0,0.5],[0,0.25]];outlineConnect=0;gradientColor=none;html=1;whiteSpace=wrap;fontSize=12;fontStyle=0;container=0;pointerEvents=0;collapsible=0;recursiveResize=0;shape=mxgraph.aws4.group;grIcon=mxgraph.aws4.group_region;strokeColor=#00A4A6;fillColor=none;verticalAlign=top;align=left;spacingLeft=30;fontColor=#147EBA;dashed=1;" vertex="1" parent="1">
          <mxGeometry x="548" y="1870" width="529" height="395" as="geometry" />
        </mxCell>
        <mxCell id="52p-Td2zRtOQ-oU-Bymd-6" value="&lt;font style=&quot;font-size: 11px;&quot;&gt;AZ, sa-east-1a&lt;/font&gt;" style="sketch=0;outlineConnect=0;gradientColor=none;html=1;whiteSpace=wrap;fontSize=12;fontStyle=0;shape=mxgraph.aws4.group;grIcon=mxgraph.aws4.group_availability_zone;strokeColor=#545B64;fillColor=none;verticalAlign=top;align=left;spacingLeft=30;fontColor=#545B64;dashed=1;" vertex="1" parent="1">
          <mxGeometry x="656" y="1898" width="160" height="346" as="geometry" />
        </mxCell>
        <mxCell id="52p-Td2zRtOQ-oU-Bymd-7" value="&lt;font style=&quot;font-size: 10px;&quot;&gt;Public subnet&lt;/font&gt;" style="points=[[0,0],[0.25,0],[0.5,0],[0.75,0],[1,0],[1,0.25],[1,0.5],[1,0.75],[1,1],[0.75,1],[0.5,1],[0.25,1],[0,1],[0,0.75],[0,0.5],[0,0.25]];outlineConnect=0;gradientColor=none;html=1;whiteSpace=wrap;fontSize=12;fontStyle=0;container=1;pointerEvents=0;collapsible=0;recursiveResize=0;shape=mxgraph.aws4.group;grIcon=mxgraph.aws4.group_security_group;grStroke=0;strokeColor=#7AA116;fillColor=#F2F6E8;verticalAlign=top;align=left;spacingLeft=30;fontColor=#248814;dashed=0;" vertex="1" parent="1">
          <mxGeometry x="669" y="1939" width="140" height="125" as="geometry" />
        </mxCell>
        <mxCell id="52p-Td2zRtOQ-oU-Bymd-10" style="edgeStyle=orthogonalEdgeStyle;rounded=0;orthogonalLoop=1;jettySize=auto;html=1;exitX=0.5;exitY=1;exitDx=0;exitDy=0;" edge="1" parent="52p-Td2zRtOQ-oU-Bymd-7">
          <mxGeometry relative="1" as="geometry">
            <mxPoint x="66.98500000000013" y="46" as="sourcePoint" />
            <mxPoint x="66.98500000000013" y="46" as="targetPoint" />
          </mxGeometry>
        </mxCell>
        <mxCell id="52p-Td2zRtOQ-oU-Bymd-12" value="&lt;font style=&quot;font-size: 10px;&quot;&gt;Private subnet&lt;/font&gt;" style="points=[[0,0],[0.25,0],[0.5,0],[0.75,0],[1,0],[1,0.25],[1,0.5],[1,0.75],[1,1],[0.75,1],[0.5,1],[0.25,1],[0,1],[0,0.75],[0,0.5],[0,0.25]];outlineConnect=0;gradientColor=none;html=1;whiteSpace=wrap;fontSize=12;fontStyle=0;container=1;pointerEvents=0;collapsible=0;recursiveResize=0;shape=mxgraph.aws4.group;grIcon=mxgraph.aws4.group_security_group;grStroke=0;strokeColor=#00A4A6;fillColor=#E6F6F7;verticalAlign=top;align=left;spacingLeft=30;fontColor=#147EBA;dashed=0;" vertex="1" parent="1">
          <mxGeometry x="669" y="2071" width="140" height="125" as="geometry" />
        </mxCell>
        <mxCell id="52p-Td2zRtOQ-oU-Bymd-13" value="" style="whiteSpace=wrap;html=1;aspect=fixed;fillColor=none;strokeColor=#FF3333;" vertex="1" parent="52p-Td2zRtOQ-oU-Bymd-12">
          <mxGeometry x="22.49000000000001" y="31" width="85" height="85" as="geometry" />
        </mxCell>
        <mxCell id="52p-Td2zRtOQ-oU-Bymd-15" value="&lt;b&gt;&lt;font style=&quot;font-size: 10px;&quot;&gt;EC2&lt;/font&gt;&lt;/b&gt;" style="text;html=1;align=center;verticalAlign=middle;whiteSpace=wrap;rounded=0;" vertex="1" parent="52p-Td2zRtOQ-oU-Bymd-12">
          <mxGeometry x="54.49000000000001" y="101" width="21" height="11" as="geometry" />
        </mxCell>
        <mxCell id="52p-Td2zRtOQ-oU-Bymd-16" value="&lt;font color=&quot;#ff3333&quot; style=&quot;font-size: 9px;&quot;&gt;Security Group&lt;/font&gt;" style="text;html=1;align=center;verticalAlign=middle;whiteSpace=wrap;rounded=0;" vertex="1" parent="52p-Td2zRtOQ-oU-Bymd-12">
          <mxGeometry x="31.00999999999999" y="27" width="71.97" height="21" as="geometry" />
        </mxCell>
        <mxCell id="52p-Td2zRtOQ-oU-Bymd-8" value="" style="sketch=0;points=[[0,0,0],[0.25,0,0],[0.5,0,0],[0.75,0,0],[1,0,0],[0,1,0],[0.25,1,0],[0.5,1,0],[0.75,1,0],[1,1,0],[0,0.25,0],[0,0.5,0],[0,0.75,0],[1,0.25,0],[1,0.5,0],[1,0.75,0]];outlineConnect=0;fontColor=#232F3E;fillColor=#ED7100;strokeColor=#ffffff;dashed=0;verticalLabelPosition=bottom;verticalAlign=top;align=center;html=1;fontSize=12;fontStyle=0;aspect=fixed;shape=mxgraph.aws4.resourceIcon;resIcon=mxgraph.aws4.ec2;" vertex="1" parent="52p-Td2zRtOQ-oU-Bymd-12">
          <mxGeometry x="39.99" y="48.5" width="50" height="50" as="geometry" />
        </mxCell>
        <mxCell id="52p-Td2zRtOQ-oU-Bymd-69" style="edgeStyle=orthogonalEdgeStyle;rounded=0;orthogonalLoop=1;jettySize=auto;html=1;" edge="1" parent="1" source="52p-Td2zRtOQ-oU-Bymd-22" target="52p-Td2zRtOQ-oU-Bymd-63">
          <mxGeometry relative="1" as="geometry" />
        </mxCell>
        <mxCell id="52p-Td2zRtOQ-oU-Bymd-22" value="" style="sketch=0;outlineConnect=0;fontColor=#232F3E;gradientColor=none;fillColor=#8C4FFF;strokeColor=none;dashed=0;verticalLabelPosition=bottom;verticalAlign=top;align=center;html=1;fontSize=12;fontStyle=0;aspect=fixed;pointerEvents=1;shape=mxgraph.aws4.internet_gateway;" vertex="1" parent="1">
          <mxGeometry x="568" y="2053" width="25" height="25" as="geometry" />
        </mxCell>
        <mxCell id="52p-Td2zRtOQ-oU-Bymd-24" value="&lt;font style=&quot;font-size: 11px;&quot;&gt;AZ, sa-east-1b&lt;/font&gt;" style="sketch=0;outlineConnect=0;gradientColor=none;html=1;whiteSpace=wrap;fontSize=12;fontStyle=0;shape=mxgraph.aws4.group;grIcon=mxgraph.aws4.group_availability_zone;strokeColor=#545B64;fillColor=none;verticalAlign=top;align=left;spacingLeft=30;fontColor=#545B64;dashed=1;" vertex="1" parent="1">
          <mxGeometry x="831" y="1897" width="160" height="348" as="geometry" />
        </mxCell>
        <mxCell id="52p-Td2zRtOQ-oU-Bymd-25" value="&lt;font style=&quot;font-size: 10px;&quot;&gt;Public subnet&lt;/font&gt;" style="points=[[0,0],[0.25,0],[0.5,0],[0.75,0],[1,0],[1,0.25],[1,0.5],[1,0.75],[1,1],[0.75,1],[0.5,1],[0.25,1],[0,1],[0,0.75],[0,0.5],[0,0.25]];outlineConnect=0;gradientColor=none;html=1;whiteSpace=wrap;fontSize=12;fontStyle=0;container=1;pointerEvents=0;collapsible=0;recursiveResize=0;shape=mxgraph.aws4.group;grIcon=mxgraph.aws4.group_security_group;grStroke=0;strokeColor=#7AA116;fillColor=#F2F6E8;verticalAlign=top;align=left;spacingLeft=30;fontColor=#248814;dashed=0;" vertex="1" parent="1">
          <mxGeometry x="844" y="1939" width="140" height="125" as="geometry" />
        </mxCell>
        <mxCell id="52p-Td2zRtOQ-oU-Bymd-28" style="edgeStyle=orthogonalEdgeStyle;rounded=0;orthogonalLoop=1;jettySize=auto;html=1;exitX=0.5;exitY=1;exitDx=0;exitDy=0;" edge="1" parent="52p-Td2zRtOQ-oU-Bymd-25">
          <mxGeometry relative="1" as="geometry">
            <mxPoint x="66.98500000000013" y="46" as="sourcePoint" />
            <mxPoint x="66.98500000000013" y="46" as="targetPoint" />
          </mxGeometry>
        </mxCell>
        <mxCell id="52p-Td2zRtOQ-oU-Bymd-30" value="&lt;font style=&quot;font-size: 10px;&quot;&gt;Private subnet&lt;/font&gt;" style="points=[[0,0],[0.25,0],[0.5,0],[0.75,0],[1,0],[1,0.25],[1,0.5],[1,0.75],[1,1],[0.75,1],[0.5,1],[0.25,1],[0,1],[0,0.75],[0,0.5],[0,0.25]];outlineConnect=0;gradientColor=none;html=1;whiteSpace=wrap;fontSize=12;fontStyle=0;container=1;pointerEvents=0;collapsible=0;recursiveResize=0;shape=mxgraph.aws4.group;grIcon=mxgraph.aws4.group_security_group;grStroke=0;strokeColor=#00A4A6;fillColor=#E6F6F7;verticalAlign=top;align=left;spacingLeft=30;fontColor=#147EBA;dashed=0;" vertex="1" parent="1">
          <mxGeometry x="844" y="2071" width="140" height="125" as="geometry" />
        </mxCell>
        <mxCell id="52p-Td2zRtOQ-oU-Bymd-34" value="" style="whiteSpace=wrap;html=1;aspect=fixed;fillColor=none;strokeColor=#FF3333;" vertex="1" parent="52p-Td2zRtOQ-oU-Bymd-30">
          <mxGeometry x="22.49000000000001" y="31" width="85" height="85" as="geometry" />
        </mxCell>
        <mxCell id="52p-Td2zRtOQ-oU-Bymd-32" value="&lt;b&gt;&lt;font style=&quot;font-size: 10px;&quot;&gt;EC2&lt;/font&gt;&lt;/b&gt;" style="text;html=1;align=center;verticalAlign=middle;whiteSpace=wrap;rounded=0;" vertex="1" parent="52p-Td2zRtOQ-oU-Bymd-30">
          <mxGeometry x="54.49000000000001" y="101" width="21" height="11" as="geometry" />
        </mxCell>
        <mxCell id="52p-Td2zRtOQ-oU-Bymd-33" value="&lt;font color=&quot;#ff3333&quot; style=&quot;font-size: 9px;&quot;&gt;Security Group&lt;/font&gt;" style="text;html=1;align=center;verticalAlign=middle;whiteSpace=wrap;rounded=0;" vertex="1" parent="52p-Td2zRtOQ-oU-Bymd-30">
          <mxGeometry x="31.00999999999999" y="27" width="71.97" height="21" as="geometry" />
        </mxCell>
        <mxCell id="52p-Td2zRtOQ-oU-Bymd-58" value="&lt;font color=&quot;#000000&quot;&gt;VPC&lt;/font&gt;" style="points=[[0,0],[0.25,0],[0.5,0],[0.75,0],[1,0],[1,0.25],[1,0.5],[1,0.75],[1,1],[0.75,1],[0.5,1],[0.25,1],[0,1],[0,0.75],[0,0.5],[0,0.25]];outlineConnect=0;gradientColor=none;html=1;whiteSpace=wrap;fontSize=12;fontStyle=0;container=1;pointerEvents=0;collapsible=0;recursiveResize=0;shape=mxgraph.aws4.group;grIcon=mxgraph.aws4.group_vpc2;strokeColor=#8C4FFF;fillColor=none;verticalAlign=top;align=left;spacingLeft=30;fontColor=#AAB7B8;dashed=0;" vertex="1" parent="1">
          <mxGeometry x="580" y="1928" width="461" height="289" as="geometry" />
        </mxCell>
        <mxCell id="52p-Td2zRtOQ-oU-Bymd-59" value="&lt;p style=&quot;line-height: 73%;&quot;&gt;&lt;font style=&quot;font-size: 9px;&quot;&gt;&lt;b style=&quot;&quot;&gt;Internet&lt;br&gt;Gateway&lt;/b&gt;&lt;/font&gt;&lt;/p&gt;" style="text;html=1;align=center;verticalAlign=middle;whiteSpace=wrap;rounded=0;" vertex="1" parent="52p-Td2zRtOQ-oU-Bymd-58">
          <mxGeometry x="5" y="150" width="31.5" height="20" as="geometry" />
        </mxCell>
        <mxCell id="52p-Td2zRtOQ-oU-Bymd-60" value="&lt;span style=&quot;font-size: 10px;&quot;&gt;&lt;b&gt;NAT Gateway&lt;/b&gt;&lt;/span&gt;" style="text;html=1;align=center;verticalAlign=middle;whiteSpace=wrap;rounded=0;" vertex="1" parent="52p-Td2zRtOQ-oU-Bymd-58">
          <mxGeometry x="120" y="101" width="71" height="15" as="geometry" />
        </mxCell>
        <mxCell id="52p-Td2zRtOQ-oU-Bymd-61" value="&lt;b&gt;&lt;font style=&quot;font-size: 10px;&quot;&gt;NAT Gateway&lt;/font&gt;&lt;/b&gt;" style="text;html=1;align=center;verticalAlign=middle;whiteSpace=wrap;rounded=0;" vertex="1" parent="52p-Td2zRtOQ-oU-Bymd-58">
          <mxGeometry x="296" y="101" width="70" height="15" as="geometry" />
        </mxCell>
        <mxCell id="52p-Td2zRtOQ-oU-Bymd-26" value="" style="sketch=0;points=[[0,0,0],[0.25,0,0],[0.5,0,0],[0.75,0,0],[1,0,0],[0,1,0],[0.25,1,0],[0.5,1,0],[0.75,1,0],[1,1,0],[0,0.25,0],[0,0.5,0],[0,0.75,0],[1,0.25,0],[1,0.5,0],[1,0.75,0]];outlineConnect=0;fontColor=#232F3E;fillColor=#ED7100;strokeColor=#ffffff;dashed=0;verticalLabelPosition=bottom;verticalAlign=top;align=center;html=1;fontSize=12;fontStyle=0;aspect=fixed;shape=mxgraph.aws4.resourceIcon;resIcon=mxgraph.aws4.ec2;" vertex="1" parent="52p-Td2zRtOQ-oU-Bymd-58">
          <mxGeometry x="303" y="191" width="50" height="50" as="geometry" />
        </mxCell>
        <mxCell id="52p-Td2zRtOQ-oU-Bymd-63" value="Internet" style="sketch=0;outlineConnect=0;fontColor=#232F3E;gradientColor=none;strokeColor=#232F3E;fillColor=#ffffff;dashed=0;verticalLabelPosition=bottom;verticalAlign=top;align=center;html=1;fontSize=12;fontStyle=0;aspect=fixed;shape=mxgraph.aws4.resourceIcon;resIcon=mxgraph.aws4.internet;" vertex="1" parent="1">
          <mxGeometry x="440" y="2035.5" width="60" height="60" as="geometry" />
        </mxCell>
        <mxCell id="52p-Td2zRtOQ-oU-Bymd-67" value="" style="sketch=0;outlineConnect=0;fontColor=#232F3E;gradientColor=none;fillColor=#8C4FFF;strokeColor=none;dashed=0;verticalLabelPosition=bottom;verticalAlign=top;align=center;html=1;fontSize=12;fontStyle=0;aspect=fixed;pointerEvents=1;shape=mxgraph.aws4.nat_gateway;" vertex="1" parent="1">
          <mxGeometry x="711" y="1976.5" width="50" height="50" as="geometry" />
        </mxCell>
        <mxCell id="52p-Td2zRtOQ-oU-Bymd-68" value="" style="sketch=0;outlineConnect=0;fontColor=#232F3E;gradientColor=none;fillColor=#8C4FFF;strokeColor=none;dashed=0;verticalLabelPosition=bottom;verticalAlign=top;align=center;html=1;fontSize=12;fontStyle=0;aspect=fixed;pointerEvents=1;shape=mxgraph.aws4.nat_gateway;" vertex="1" parent="1">
          <mxGeometry x="886" y="1976.5" width="50" height="50" as="geometry" />
        </mxCell>
        <mxCell id="52p-Td2zRtOQ-oU-Bymd-71" value="" style="whiteSpace=wrap;html=1;aspect=fixed;" vertex="1" parent="1">
          <mxGeometry x="1562" y="1831.5" width="195" height="195" as="geometry" />
        </mxCell>
        <mxCell id="52p-Td2zRtOQ-oU-Bymd-72" value="" style="whiteSpace=wrap;html=1;aspect=fixed;" vertex="1" parent="1">
          <mxGeometry x="1281" y="1831" width="195" height="195" as="geometry" />
        </mxCell>
        <mxCell id="52p-Td2zRtOQ-oU-Bymd-73" value="" style="sketch=0;outlineConnect=0;fontColor=#232F3E;gradientColor=none;fillColor=#ED7100;strokeColor=none;dashed=0;verticalLabelPosition=bottom;verticalAlign=top;align=center;html=1;fontSize=12;fontStyle=0;aspect=fixed;pointerEvents=1;shape=mxgraph.aws4.instance2;" vertex="1" parent="1">
          <mxGeometry x="1353.5" y="1904" width="50" height="50" as="geometry" />
        </mxCell>
        <mxCell id="52p-Td2zRtOQ-oU-Bymd-75" value="" style="sketch=0;outlineConnect=0;fontColor=#232F3E;gradientColor=none;fillColor=#ED7100;strokeColor=none;dashed=0;verticalLabelPosition=bottom;verticalAlign=top;align=center;html=1;fontSize=12;fontStyle=0;aspect=fixed;pointerEvents=1;shape=mxgraph.aws4.instance2;" vertex="1" parent="1">
          <mxGeometry x="1634.5" y="1903.5" width="50" height="50" as="geometry" />
        </mxCell>
        <mxCell id="52p-Td2zRtOQ-oU-Bymd-76" value="" style="whiteSpace=wrap;html=1;aspect=fixed;fillColor=none;strokeColor=#FF3333;" vertex="1" parent="1">
          <mxGeometry x="1325" y="1875.5" width="107" height="107" as="geometry" />
        </mxCell>
        <mxCell id="52p-Td2zRtOQ-oU-Bymd-78" value="" style="whiteSpace=wrap;html=1;aspect=fixed;fillColor=none;strokeColor=#FF3333;" vertex="1" parent="1">
          <mxGeometry x="1606" y="1875.5" width="107" height="107" as="geometry" />
        </mxCell>
        <mxCell id="52p-Td2zRtOQ-oU-Bymd-79" value="&lt;font data-font-src=&quot;https://fonts.googleapis.com/css?family=Fredoka&quot; face=&quot;Fredoka&quot;&gt;&lt;font color=&quot;#ff0000&quot;&gt;Bloquear&lt;/font&gt; todo tráfego de entrada&lt;/font&gt;" style="text;html=1;align=center;verticalAlign=middle;whiteSpace=wrap;rounded=0;" vertex="1" parent="1">
          <mxGeometry x="1329" y="1838" width="107.5" height="30" as="geometry" />
        </mxCell>
        <mxCell id="52p-Td2zRtOQ-oU-Bymd-80" value="&lt;font data-font-src=&quot;https://fonts.googleapis.com/css?family=Fredoka&quot; face=&quot;Fredoka&quot;&gt;&lt;font color=&quot;#4d9900&quot;&gt;Permitir&lt;/font&gt; todo tráfego de saída&lt;/font&gt;" style="text;html=1;align=center;verticalAlign=middle;whiteSpace=wrap;rounded=0;" vertex="1" parent="1">
          <mxGeometry x="1606" y="1840" width="107.5" height="30" as="geometry" />
        </mxCell>
        <mxCell id="52p-Td2zRtOQ-oU-Bymd-81" value="&lt;font face=&quot;Fredoka&quot; color=&quot;#ff0000&quot;&gt;Security Group&lt;/font&gt;" style="text;html=1;align=center;verticalAlign=middle;whiteSpace=wrap;rounded=0;" vertex="1" parent="1">
          <mxGeometry x="1325" y="1875.5" width="107.5" height="30" as="geometry" />
        </mxCell>
        <mxCell id="52p-Td2zRtOQ-oU-Bymd-82" value="&lt;font face=&quot;Fredoka&quot; color=&quot;#ff0000&quot;&gt;Security Group&lt;/font&gt;" style="text;html=1;align=center;verticalAlign=middle;whiteSpace=wrap;rounded=0;" vertex="1" parent="1">
          <mxGeometry x="1605.5" y="1875.5" width="107.5" height="30" as="geometry" />
        </mxCell>
      </root>
    </mxGraphModel>
  </diagram>
</mxfile>
